<svg width="167" height="36" viewBox="0 0 167 36" fill="none" xmlns="http://www.w3.org/2000/svg">
<path d="M41.41 14.832C38.893 17.145 35.934 18.626 31.877 19.871C30.6897 20.2312 29.4903 20.5504 28.281 20.828C21.562 22.299 22.98 19.871 29.38 17.527C33.407 16.128 37.188 15.204 41.41 14.823M128.649 14.792C126.102 17.074 123.051 18.452 118.89 19.738C117.672 20.1067 116.442 20.4359 115.202 20.725C108.586 22.144 109.511 20.067 116.055 17.702C120.174 16.283 124.304 15.235 128.649 14.792ZM104.107 23.973C104.96 24.888 107.25 25.269 109.839 25.063C112.521 24.909 116.126 24.148 120.595 22.524C121.654 22.133 122.702 21.7146 123.739 21.269C123.913 21.197 124.098 21.115 124.273 21.033C124.458 21.455 124.633 21.845 124.828 22.236C125.711 24.117 126.903 25.074 129.502 24.292C130.92 23.86 132.779 23.407 135.306 22.523L133.128 24.99H135.871C137.207 24.938 138.337 24.465 139.2 23.612L143.217 19.643C149.668 17.587 154.188 16.805 156.233 16.538C156.397 16.517 156.459 16.62 156.284 16.785C154.445 18.676 152.154 21.484 150.922 23.489C150.151 24.733 151.076 24.97 153.377 25.063C155.442 25.145 157.24 24.97 159.284 24.744C161.441 24.497 163.66 24.178 166.999 23.294L166.67 22.142C166.526 21.556 165.931 21.309 165.242 21.453C163.691 21.772 162.869 21.936 162.13 22.039C161.267 22.162 160.434 22.245 160.095 22.255C158.503 22.327 158.38 21.802 159.099 20.866C160.558 18.964 162.695 16.743 164.307 14.851C164.657 14.46 164.605 14.018 164.503 13.709C164.384 13.3895 164.247 13.077 164.092 12.773C163.373 11.354 157.353 12.835 152.36 14.326C149.74 15.097 147.429 15.879 146.432 16.207L150.038 12.238L144.069 12.557L138.553 18.891C137.063 19.457 135.666 19.909 134.259 20.413C132.204 21.164 131.002 20.855 130.427 19.94C129.975 19.22 129.872 18.521 130.447 17.822L135.491 12.239C131.166 12.105 123.461 12.619 116.743 14.439C113.188 15.406 109.511 16.937 108.257 17.606C106.192 18.707 104.21 20.012 103.675 21.205C94.882 22.902 90.649 22.583 87.844 22.275C81.423 21.555 86.837 18.717 88.502 18.018C91.081 16.938 94.769 16.044 99.433 15.016C100.85 14.707 102.669 14.399 104.436 14.111C104.497 14.111 104.559 14.09 104.621 14.08C104.96 14.018 105.124 13.782 105.34 13.525C106.223 12.455 106.346 11.962 105.124 11.941C104.847 11.941 104.569 11.941 104.271 11.962C100.768 12.168 95.149 12.826 90.063 14.265C81.752 16.66 77.324 19.581 77.571 22.069C72.681 23.632 65.736 26.316 62.213 28.104C65.079 25.277 72.969 17.915 79.842 12.012L72.867 12.639L68.039 17.276C65.645 18.52 60.581 20.412 57.612 20.875C56.605 21.029 57.304 20.155 57.766 19.569C59.389 17.513 62.41 14.386 64.156 12.639C61.074 12.958 59.482 12.968 57.253 13.338C56.739 13.688 53.4 17.04 51.87 18.766C50.052 19.558 47.422 20.432 45.778 20.966C44.196 21.552 43.836 21.367 43.333 20.472C42.943 19.773 42.573 18.682 43.004 18.18L47.997 12.35C35.227 12.237 27.738 14.129 21.657 17.809L9.966 20.667L10.603 20.009C12.38 18.159 14.168 16.307 15.935 14.447C17.2563 13.0474 18.5644 11.6353 19.859 10.211C21.2321 8.69956 22.5779 7.16365 23.896 5.604C26.403 5.532 28.909 5.429 31.416 5.326C34.755 5.182 38.094 5.028 41.432 4.997C42.593 4.997 43.569 4.771 44.401 4.411C45.233 4.051 45.921 3.557 46.507 2.992C46.764 2.745 47.041 2.488 47.329 2.221C48.1 1.511 48.932 0.73 49.589 0C45.459 0.154 41.319 0.35 37.189 0.566C33.049 0.782 28.909 1.029 24.769 1.296C21.06 1.533 17.362 1.81 13.664 2.098C10.6233 2.33467 7.58233 2.602 4.541 2.9C3.24912 4.14314 1.97499 5.4046 0.719 6.684C3.185 6.571 5.65 6.458 8.116 6.324C10.304 6.211 12.544 6.087 14.989 5.954L16.294 5.882L11.979 10.941C10.6019 12.5578 9.22189 14.1721 7.839 15.784C6.493 17.347 5.158 18.92 3.822 20.483L0 24.987H3.339C4.428 24.987 5.63 24.452 5.815 24.349C6.123 24.1837 6.421 23.9987 6.709 23.794L17.773 21.111C15.873 23.959 18.133 26.345 26.752 24.689C30.245 24.021 33.851 22.654 37.015 21.265C37.22 21.738 37.405 22.15 37.621 22.582C38.535 24.412 39.573 25.636 41.884 24.833C43.826 24.247 47.154 23.074 49.589 21.944C49.24 22.386 48.88 22.973 48.849 23.014C47.39 25.173 47.986 26.027 51.962 25.389C55.64 24.792 60.725 23.436 63.55 22.14C59.389 26.284 54.684 31.076 50.123 36L53.77 35.208C55.496 34.262 56.759 33.306 58.824 32.175C62.399 30.222 73.628 25.749 78.99 24.031C80.778 25.193 84.086 25.779 89.571 25.584C93.238 25.461 98.026 25.183 104.128 24.01L104.108 23.969V23.972L104.107 23.973Z" fill="black"/>
</svg>
