<svg width="110" height="36" viewBox="0 0 110 36" fill="none" xmlns="http://www.w3.org/2000/svg">
<path d="M103.82 22.5232C103.737 25.7826 101.648 28.3372 98.7812 30.2964H98.7757C94.5678 33.1612 88.6835 34.7521 84.9616 35.36C80.5227 36.0869 73.3128 36.4732 67.8337 34.9598C64.0617 33.9116 60.9246 31.8333 60.376 28.189C59.89 24.9366 62.2543 22.2338 65.461 19.9852C70.4096 16.5098 75.8233 15.8064 75.8233 15.8064C75.8233 15.8064 73.8628 13.5342 74.6035 10.7858C76.7854 2.68438 90.1943 0.301455 95.7945 0.0356084C106.737 -0.480854 109.29 4.78761 109.408 5.03131L109.412 5.03823C110.43 6.91023 110.026 8.93593 108.962 10.8149C106.558 15.0559 100.377 17.2755 100.377 17.2755C100.377 17.2755 103.822 18.9536 103.822 22.5259H103.82V22.5232ZM99.5666 5.48131C97.6562 5.06454 91.1912 4.54531 85.2081 7.99854L85.2137 8.00546C83.4328 9.0287 82.4163 10.2028 82.6837 11.5252C82.9524 12.8461 84.271 13.6256 86.0366 13.8942C92.8204 14.9272 98.6893 12.4238 100.435 11.3549C102.172 10.2928 103.107 8.91931 102.965 7.88777C102.823 6.85623 101.489 5.90638 99.5651 5.48131H99.5666ZM81.4263 30.0181C85.5966 29.5072 88.5095 28.4369 90.6357 27.181H90.6287C94.3952 24.9476 93.7881 22.9413 93.7881 22.9413C93.5834 21.5442 92.1785 20.4919 90.0063 19.8827C87.8578 19.2804 84.9519 19.1253 81.7563 19.5116C78.2154 19.9339 74.7804 21.0998 72.6834 22.3695C70.5642 23.6475 69.3834 25.0723 69.5171 26.6383C69.6424 28.1018 71.11 29.1112 73.2529 29.6913C75.3722 30.2701 78.2433 30.4113 81.4277 30.0167L81.4263 30.0181ZM12.5943 31.3432C15.9402 25.5292 26.4083 13.1521 42.6994 5.32069L38.4749 0.197609C34.2448 0.808225 30.3808 1.13361 25.5005 1.24576C21.4277 1.33299 18.1026 1.41469 14.8166 1.37869C11.0988 1.33715 10.2857 2.23992 9.29986 3.33515L9.05897 3.59823C9.05897 3.59823 7.73062 5.22238 6.52758 6.81192C5.84809 7.70777 5.21316 8.58977 4.8748 9.16577C4.1786 10.3469 5.59328 10.9395 6.89518 10.2347C9.68138 8.74346 14.7121 7.73269 21.301 7.75485C22.7143 7.75485 24.1108 7.72577 25.4698 7.66623C26.4473 7.62377 27.4234 7.55962 28.3981 7.47377C15.1842 14.2016 6.58885 24.1044 0 35.6646H5.75619C8.42961 35.6923 10.3985 35.1453 12.5915 31.3446L12.5943 31.3432ZM43.6797 33.038L69.5213 4.25177L64.2427 0.250224C63.3585 0.666994 57.3698 3.74084 49.3816 5.35392L44.3647 11.0253C49.4568 10.9367 53.9486 10.8467 53.9486 10.8467L31.5184 35.7103C31.5184 35.7103 35.9713 35.6881 36.2261 35.6798C39.2811 35.5843 41.4226 35.3904 43.6755 33.0435L43.6769 33.0407L43.6797 33.038Z" fill="black"/>
</svg>
