<svg width="132" height="35" viewBox="0 0 132 35" fill="none" xmlns="http://www.w3.org/2000/svg">
<path d="M109.945 9.863V35H132V0L121.305 0.063L98.2979 3.6428V0L87.6031 0.063L64.4216 3.675C64.0565 1.6226 62.2633 0.0476 60.1063 0.0476H4.37987C1.96736 0.0476 0 2.0202 0 4.438V17.1976C0 19.6154 2.904 21.588 5.31511 21.588H43.7145C47.2532 21.588 46.8726 25.9784 43.7145 25.9784H0V34.9664H60.1049C62.516 34.9664 64.4848 32.9938 64.4848 30.576V11.389L76.2426 9.8462V34.9832H98.2979V11.375L109.945 9.8476V9.863ZM16.2009 8.6534H43.7945C45.144 8.6534 46.2379 9.751 46.2379 11.1034C46.2379 12.4558 45.1271 13.5534 43.7945 13.5534H16.2009C14.8528 13.5534 13.7575 12.4558 13.7575 11.1034C13.7575 9.751 14.8683 8.6534 16.2009 8.6534Z" fill="#F1F1F1"/>
</svg>
